<svg width="10" height="7" viewBox="0 0 10 7" fill="none" xmlns="http://www.w3.org/2000/svg">
<path d="M9.4997 1.81121e-06L0.499443 1.02439e-06C0.40832 0.000268114 0.319 0.0237662 0.241098 0.0679653C0.163195 0.112164 0.0996608 0.175391 0.0573326 0.250839C0.0150044 0.326288 -0.00451443 0.411102 0.000877267 0.496151C0.00626896 0.5812 0.0363667 0.663264 0.0879311 0.733509L4.58806 6.81101C4.77456 7.063 5.22358 7.063 5.41058 6.81101L9.91071 0.73351C9.9628 0.663411 9.99335 0.581306 9.99903 0.496115C10.0047 0.410925 9.98532 0.325907 9.94296 0.250298C9.90059 0.17469 9.83687 0.111382 9.75872 0.0672546C9.68058 0.0231271 9.59099 -0.000132626 9.4997 1.81121e-06Z" fill="#D2D5D8"/>
</svg>
