<svg width="10" height="7" viewBox="0 0 10 7" fill="none" xmlns="http://www.w3.org/2000/svg">
<path d="M0.500301 7L9.50056 7C9.59168 6.99973 9.681 6.97623 9.7589 6.93203C9.83681 6.88783 9.90034 6.82461 9.94267 6.74916C9.985 6.67371 10.0045 6.5889 9.99912 6.50385C9.99373 6.4188 9.96363 6.33674 9.91207 6.26649L5.41194 0.188987C5.22544 -0.0629957 4.77642 -0.0629957 4.58942 0.188987L0.0892894 6.26649C0.0372003 6.33659 0.00665413 6.41869 0.00096949 6.50388C-0.00471515 6.58908 0.0146792 6.67409 0.0570455 6.7497C0.0994117 6.82531 0.163129 6.88862 0.241276 6.93275C0.319422 6.97687 0.409009 7.00013 0.500301 7Z" fill="#D2D5D8"/>
</svg>
